<svg t="1719155540854" class="icon" viewBox="0 0 1024 1024" version="1.1" xmlns="http://www.w3.org/2000/svg" p-id="1001" width="200" height="200"><path d="M757.686419 559.619067c24.961058 1.361512 51.075477 9.349733 68.780255 27.51176 8.518835 10.23011 12.390103 21.983816 16.814164 34.370506 13.618535 37.15154 41.015983 64.893632 76.609803 81.70609 13.091333 5.705385 26.769583 8.885659 41.015983 9.499875C964.131258 713.173079 964.131258 713.173079 967.543569 716.58539l-6.739315 0.011943a144691.92557 144691.92557 0 0 0-178.277914 0.43507l-3.936101 0.011943c-20.975478 0.059715-41.950956 0.102369-62.92814 0.138199-21.552159 0.037535-43.106024 0.093839-64.658183 0.168909-13.27901 0.04436-26.559726 0.075071-39.838735 0.085308-10.214754 0.010237-20.429508 0.047772-30.642556 0.093838-4.168138 0.015355-8.334571 0.02218-12.501003 0.018768-27.922944-0.013649-54.636224 1.102177-81.2932 10.339304-13.632184 4.521313-13.632184 4.521313-19.08847 5.758275v3.412311c19.26591 3.61705 38.494285 5.817991 58.043417 7.244337l3.480557 0.255924c9.583477 0.697818 19.172071 1.364925 28.758961 2.0235C704.667631 756.705641 704.667631 756.705641 732.094084 786.537773c2.552409 5.104818 2.434684 7.919975 1.706156 13.649246-9.733618 22.913671-38.217887 34.843112-59.715449 44.360048h-3.412312c2.48075-7.029361 6.085857-12.608491 10.236934-18.767713 2.866342-8.595612 3.83885-17.633119-0.100663-26.032523-8.518835-12.144416-19.782875-18.477666-34.02245-21.739836l1.999614 2.072979c10.774373 11.760531 16.392744 23.087699 15.713694 39.280823-3.893447 28.103797-27.557827 50.174627-49.017853 66.592962-34.428516 25.385891-72.910857 44.559668-111.372725 62.989562l-3.753543 1.808525c-8.431821 3.965106-17.001841 7.041305-25.890912 9.813808 2.50293-5.289083 4.857425-8.413054 9.278074-12.263847 6.548226-6.398084 10.069731-12.700623 11.195794-21.859267-2.069567-9.40433-8.87201-13.978534-16.582127-19.040697-15.589145-8.742342-32.596104-14.736067-49.256715-21.088085l-5.865763-2.235064c-3.770604-1.433171-7.54462-2.84928-11.323755-4.253446-37.470591-14.11332-37.470591-14.11332-44.933317-25.041247-1.066347-6.079033-1.066347-6.079033 0-11.94309 17.09568-19.94496 57.038491-19.677094 81.30685-22.311398 60.896109-4.806241 60.896109-4.806241 116.60721-27.167117 2.113927-3.190511 2.113927-3.190511 1.706156-6.824623-22.169787-27.161999-87.778298-25.984751-120.232791-29.960094a1008.041142 1008.041142 0 0 1-24.896224-3.417429l-3.80814-0.528909c-7.471256-1.156774-13.393322-3.335534-19.972258-7.041304v-6.824623a640.2008 640.2008 0 0 1 6.611353-3.09326l3.719419-1.738573c7.215332-2.861223 14.633697-4.959795 22.086186-7.111257-6.261591 1.248906-12.514652 2.540466-18.767713 3.838851l-5.324912 1.059522c-10.605464 2.229945-19.344393 5.138941-28.798202 10.457028 4.867662 3.966812 9.452103 6.398084 15.355402 8.530779v1.706156c-48.314917-1.842648-48.314917-1.842648-59.71545-11.94309 1.706156-5.118467 1.706156-5.118467 5.314675-6.986708 11.269158-3.939513 22.234621-6.703486 34.032688-8.474475l5.434106-0.842841c39.204045-5.766806 79.387424-8.970967 119.006065-9.417979 42.442329-0.452131 42.442329-0.452131 83.605042-10.107267l3.620462-1.180659c35.441972-11.627451 76.918617-33.082359 95.336568-67.065568 6.996944 2.395443 11.908967 5.749745 17.595583 10.450203l4.563967 3.745012L704.795593 653.45763c-1.016869 6.913343-3.272407 11.96527-6.718841 18.022122-3.002834 5.318087-5.961308 10.608876-8.63656 16.100991 35.206523-35.871923 57.308063-78.995008 68.246227-127.961676z m-317.344958 163.790946v1.706156h8.530778v-1.706156h-8.530778z" p-id="1002"></path><path d="M561.372733 324.0638l4.951264 0.046066L570.009293 324.169581l-5.118467 5.118467 3.412312 5.118467c-0.344643 4.586146-0.919618 7.510497-3.745012 11.17532-4.047001 3.250227-7.763008 4.111835-12.784225 5.352211l-5.137234 1.30009L542.710802 353.174228l5.324912 1.325683C574.044352 361.346714 597.853754 372.31047 617.781653 390.709653l5.038278 4.565673c27.554414 25.751008 47.516436 62.953733 49.860693 101.001004 1.074878 52.394335-8.448883 94.659224-45.179002 133.883744-29.972037 30.869475-70.817404 48.386575-113.657268 49.372733-48.226197 0.484548-89.199526-16.503644-123.834486-50.068845-31.731084-31.661131-45.568006-74.161469-45.648195-118.229765 0.168909-17.293594 2.004733-34.55989 8.965848-50.572161l3.412311 1.706156v46.066204l18.767713 6.824623c14.254931 6.389553 25.785131 15.420235 37.535425 25.592335l3.671647 2.978948c13.840335 11.427831 25.070252 25.780012 33.863778 41.3811v3.412311l-3.492501 0.13308c-9.465752 0.56815-9.465752 0.56815-18.047714 4.239797-3.374776 5.981782-3.736481 11.21968-2.345965 17.807147 7.628222 13.621947 24.792148 19.808468 39.241581 23.88618 4.446242 0.774595 4.446242 0.774595 8.530779 0 9.708026-7.549739 19.001456-20.968653 21.233107-33.150605 0.319051-6.491922-0.017062-10.08338-3.63923-15.580614-4.852307-3.018189-6.872395-3.68359-12.47541-2.453452a241.250415 241.250415 0 0 0-8.530779 8.530779h-5.118467a1559.044122 1559.044122 0 0 1-3.306529-7.251162l-1.85971-4.077712c-6.05344-14.686588-4.900079-30.956489 0.934973-45.533883 3.80814-6.875807 8.875422-12.199013 14.428959-17.715015 3.555628-4.023115 5.198656-7.370593 6.863864-12.436169l-6.824623-8.530778c13.560525 0.50161 24.293951 5.41875 33.889371 15.176255 10.578165 13.308014 14.265168 27.912707 13.871046 44.779762l-0.08872 5.96472c-0.075071 4.082831-0.163791 8.165661-0.266161 12.250198-0.151848 12.432757 1.040755 22.797652 5.485291 34.435341l1.811937 4.799416c10.359777 11.693991 27.327496 14.986872 42.227354 16.208479 25.268166-0.90085 45.562888-13.521284 63.023685-30.915542 8.583669-9.298549 11.182144-18.503258 12.367922-31.04009l0.632984-3.884917c0.518671-3.233165 0.801893-6.500453 1.073172-9.764329l0.272985-3.279231c1.148243-26.564844-7.467843-52.327795-24.693191-72.537209-18.15179-18.704585-41.898065-30.958195-68.20528-31.864164-4.959795-0.017062-9.904234 0.039242-14.862323 0.192796l3.311649 1.506535c15.363932 7.280166 25.547975 14.205452 32.717241 30.018104 2.337433 6.683012 2.566058 10.893804 1.506536 17.953876-3.158094 6.316188-5.178183 9.414567-11.516551 12.582898L564.890826 510.140552l1.552602 2.866341 1.965491 3.745012 1.979141 3.719419L571.715449 523.789797l-1.706156 3.412311c-28.741899-16.578715-50.65235-40.345464-68.246227-68.246227l-3.446435 1.685682c-34.500174 16.358621-74.195593 18.585154-110.705618 6.597704-6.254767-2.554115-12.393515-5.449461-15.51578-11.695698-1.439995-18.426481 10.460441-35.421498 22.04012-48.971786L397.687569 402.652743l3.497619-3.91904c18.324112-19.426289 44.494834-36.414481 70.612665-43.107729 7.991633-2.064448 12.893419-6.167753 19.175484-11.37494 18.67558-14.219102 47.33729-20.473868 70.39769-20.188941zM494.938443 400.946587c9.716557-0.784832 19.422876-1.573076 29.112135-2.666721 40.541672-3.982167 80.786472 4.734582 112.712057 30.790992 3.425961 2.84928 3.425961 2.84928 8.317509 5.998843-8.291917-18.504965-30.871181-32.860559-49.159464-40.202146-2.371556-0.847959-4.748231-1.678857-7.143674-2.451746 4.202261-4.202261 8.030875-5.115055 13.649246-6.824623-29.214504-16.230659-82.543812-4.337048-107.487809 15.355401z m-72.417778 24.56523c-2.944825 4.065769-2.944825 4.065769-2.653072 7.851728 15.775116 2.415916 15.775116 2.415916 30.601608-1.982552 6.589173-5.403395 12.036928-11.712759 17.170751-18.491316v-1.706156c-20.362968-2.195822-32.161035-2.559234-45.119287 14.328296z" p-id="1003"></path><path d="M264.607425 499.903617l-0.119431 3.279232c-1.0254 53.018788 13.297777 104.355307 42.773323 148.568625l-1.492886-6.478273L303.849006 636.822612l-0.986158-4.26539-0.933267-4.132309-0.866728-3.791078C300.436694 621.040671 300.436694 621.040671 300.436694 614.216049c10.504801 1.962079 20.098514 4.0743 29.004647 10.236934 4.504251 7.114669 7.42519 14.536446 10.537218 22.330165 12.207544 28.313654 36.434955 46.999471 63.921123 58.824836 7.501967 2.951649 14.918625 5.775337 22.792533 7.565095v3.412311H54.750275l1.706156-3.412311a142.958785 142.958785 0 0 1 10.236934-1.492887c19.559369-2.779328 35.718369-11.501196 48.412167-26.851478 3.886623-5.708797 7.060072-11.758825 10.344422-17.829327C130.776572 657.240177 135.354188 649.019919 145.176527 643.220695l3.512974-2.171936c9.086985-5.058752 18.665343-8.184429 28.584933-11.158258l3.770604-1.132887c6.381022-1.820468 12.082995-3.054019 18.728471-2.598476l1.699331 4.951264C207.862393 649.175179 216.050234 665.736832 225.365844 682.462276l-1.484355-4.190318a4908.918736 4908.918736 0 0 1-5.524533-15.730756c-0.788244-2.250419-1.5799-4.497426-2.376674-6.744433-5.256666-14.831611-9.523761-29.57109-12.794462-44.993032l-25.592335 8.530779c1.917719-13.427445 1.917719-13.427445 3.692121-19.134536l1.197721-3.913922 1.294972-4.144252c3.059137-9.921295 6.056853-19.849415 8.851536-29.8509l1.561132-5.541593a1402.724432 1402.724432 0 0 0 2.96018-10.697597C201.189618 531.800198 206.2569 522.431697 218.541221 513.552863c4.123778-2.137813 8.337983-3.821789 12.690386-5.439224l3.255345-1.276205c19.641264-7.568507 19.641264-7.568507 30.120473-6.933817z m-37.535425 184.264815l1.706155 3.412311z" p-id="1004"></path><path d="M469.724874 104.507155c3.70577 1.55772 5.667849 3.514681 8.471063 6.392965C514.388618 142.924662 573.617813 153.301501 619.487809 163.790946c-2.571177 8.837886-6.549932 16.321085-10.984231 24.312719-11.318637 20.782682-11.318637 20.782682-12.267259 43.972751 1.85971 5.848702 4.640743 8.419878 9.602244 11.903848 7.783482 3.680178 11.204324 4.178375 19.480886 1.586725 4.137428-1.596962 8.244144-3.277525 12.309913-5.051927 5.744626-1.653265 5.744626-1.653265 11.39712-0.926443C653.610922 242.274108 653.610922 242.274108 655.624186 247.413049l1.185778 6.270122c3.112028 12.42252 6.870689 17.370371 17.274827 24.420207a1452.482756 1452.482756 0 0 1 9.702907 7.143673l5.23278 3.879798c6.176284 4.729464 11.958445 9.853049 17.69454 15.101185l2.876579 2.605299c4.594677 4.27392 8.283386 8.010401 10.559397 13.923937l-3.745011 1.252318c-9.339496 3.238284-17.363546 6.42197-25.259635 12.396927-5.821403-2.523404-9.63978-5.843583-14.183273-10.236934-29.120665-26.60238-67.884523-48.579371-107.99283-48.258613-12.942897 1.088527-24.621533 6.11145-34.790221 14.135499a238.742366 238.742366 0 0 0-4.586147 10.663473c-4.311455 7.121494-4.311455 7.121494-9.063099 9.810396-15.077298 2.765678-30.874593 1.230138-46.066203 0a4759.543099 4759.543099 0 0 1-10.373427-17.733783 2901.090833 2901.090833 0 0 0-5.220836-8.907838C438.635305 249.064608 438.635305 249.064608 438.635305 238.861797a3280.016069 3280.016069 0 0 1 17.274827-4.26539l4.918847-1.23355c20.502873-4.981975 20.502873-4.981975 26.991383-1.22502l2.426153 2.351083c6.696661 6.241118 10.521862 6.681306 19.387047 6.551638 6.87922-0.798481 10.475796-3.088142 16.015684-7.297228 5.724152-7.940449 6.650595-16.09246 5.118467-25.592336-3.774016-7.548033-7.619691-11.937971-15.355402-15.355401-9.651723-2.50293-15.172843-1.354688-23.886179 3.412311-4.086243 2.519992-4.086243 2.519992-6.824623 6.824623l-1.405872 8.404523c-1.337626 4.610033-1.337626 4.610033-3.712595 8.657034-6.807561 3.675059-13.860809 4.862544-21.434434 6.184814l-6.007374 1.245494C438.360614 230.331018 438.360614 230.331018 433.516838 230.331018c-2.828806-22.939263-3.074493-45.608954 1.706156-68.246227 2.047387-12.73304-4.867662-20.729792-11.94309-30.710803 6.642064-7.268223 15.399761-11.642806 23.778692-16.635018l5.183301-3.178568 4.993918-2.978948 4.558848-2.745204C465.933796 104.075497 465.933796 104.075497 469.724874 104.505448z m-11.289632 72.921094c-9.144995 11.438068-12.635789 23.050163-12.975314 37.547368l10.236934-1.706156 0.818955-3.251932c3.983874-14.611517 9.668784-27.733561 23.067225-35.989649 14.222514-7.636753 28.236877-9.378738 43.826021-4.905197C538.138305 174.812712 546.585482 183.580646 552.947737 197.91406c4.202261 12.606784 3.869561 29.78436-1.706156 41.906596-8.174192 13.717492-19.784581 21.628936-34.976192 25.805605-15.010758 1.876771-28.438203-0.551088-40.734467-9.597126a79.998228 79.998228 0 0 1-9.917883-9.383856L462.521485 243.980264c-4.618563 0.238862-4.618563 0.238862-8.530778 1.706155 2.852692 10.458734 10.465559 17.445442 19.453587 23.012628 15.711988 8.206609 31.116867 12.096644 48.579371 7.484905 18.272927-6.061971 30.96502-15.822888 39.93428-32.969752 6.7905-15.445827 8.233907-30.883124 2.932881-47.006296-7.836373-18.600509-18.946859-28.888628-36.861493-37.629263-25.31935-9.99466-51.650451-0.119431-69.594091 18.847902z" p-id="1005"></path><path d="M273.138203 185.97097c5.616665 1.871653 6.201876 2.589944 9.290018 7.290404l2.260656 3.412311 2.311841 3.586339 2.352789 3.545392c3.209279 4.896667 5.807754 8.99144 7.670876 14.582512l10.236934-6.824622c5.457992 2.322078 8.208315 4.615151 11.550674 9.491344l2.550703 3.671647 2.641129 3.898566 2.726437 3.956575c1.79317 2.600181 3.582927 5.205481 5.364153 7.814193a526.937654 526.937654 0 0 0 6.457799 9.175705l3.258758 4.538374 2.798095 3.886623C346.502898 261.041821 346.502898 261.041821 346.502898 264.454132c-2.579707 1.912601-2.579707 1.912601-6.292302 4.159608C293.441456 298.913359 259.18185 345.213306 237.308934 395.82812c-13.915406-1.683976-23.865706-3.120559-34.416573-12.864414-6.802443-5.434106-15.24962-7.298934-23.592721-9.31561 0.946916-8.534191 3.775723-15.3827 7.677701-22.92732l1.844354-3.605107c11.35276-21.895096 24.496983-41.74963 39.639115-61.213454 5.512589-7.304053 6.256473-12.516358 5.435812-21.448083-1.330801-5.570598-2.091747-7.689644-6.93211-10.770961-6.836566-1.598668-13.379673-1.44682-20.366381-1.172129 2.719612-6.674481 7.061778-10.871624 12.15636-15.889428l2.555821-2.521698c5.69856-5.580835 11.591622-10.864799 17.658711-16.037863 4.164726-3.717713 8.064998-7.645284 11.989156-11.617214 5.28567-5.318087 10.581578-10.600345 16.102698-15.674453l3.190511-2.953355L273.138203 185.97097z" p-id="1006"></path><path d="M778.160288 375.354252l5.684911 1.433171c23.881061 5.906711 44.914549 7.387654 69.385939 5.391452 13.033323 35.380551 22.202204 72.528678 22.586089 110.413865l0.051185 4.16302c0.042654 4.425768 0.063128 8.851536 0.075071 13.27901l0.013649 4.589559c0.011943 35.331072-4.528137 68.962813-14.195215 103.004031h-3.412312l-1.506535-5.744626C850.880056 589.901624 844.587753 572.03988 824.226491 559.619067a726.083559 726.083559 0 0 0-17.061557-8.530779l0.081896-5.906711c0.093839-7.399597 0.151848-14.799194 0.19962-22.198792a1538.440586 1538.440586 0 0 1 0.104076-9.51523c0.39071-28.240289-1.958667-55.484183-10.088499-82.663243l-1.281323-4.413825c-3.704064-12.287733-8.445471-24.056795-13.686781-35.764435l-1.706155-3.821789c-0.508434-1.103883-1.015163-2.206059-1.535541-3.344065C778.160288 380.472719 778.160288 380.472719 778.160288 375.354252z" p-id="1007"></path><path d="M865.63489 263.362192c9.291724 6.495335 9.291724 6.495335 11.376646 12.608491L878.823473 279.809533c3.690415 1.098764 7.382536 1.658383 11.17532 2.306723 10.390488 2.750323 18.767713 11.163377 24.65395 19.873301 2.832218 8.496655 2.728143 15.872366-0.213269 24.206937-7.329645 10.994467-16.186299 15.4936-28.791378 18.446956h-5.118467l-0.580093 2.999421c-2.117339 8.387461-4.475246 13.21247-11.682048 18.221743-20.502873 11.891905-47.141082 11.487546-69.633332 6.077327-11.013235-3.407193-21.707419-7.693056-32.416958-11.94309a7390.093943 7390.093943 0 0 0-12.878063-5.021216 1509.055467 1509.055467 0 0 1-7.960923-3.130796c-15.614737-6.227468-15.614737-6.227468-31.964827-4.265389-3.507856 1.689094-6.918461 3.494207-10.323948 5.379509-14.034837 7.609454-26.569963 12.949722-42.653892 8.744047-7.556564-3.628993-13.89152-7.073721-17.488096-14.848673L641.667832 342.937294c4.644156 1.774402 8.76964 3.559041 13.009438 6.184814 8.343101 3.398662 15.645448 3.8525 24.525988 2.345964 6.201876-2.748617 11.562617-6.287184 17.061557-10.236934 13.152754-8.998265 23.1713-12.258729 39.24158-10.236934 5.101406 1.352981 10.059494 3.043782 15.036351 4.79771 21.951399 7.706705 41.556834 10.999586 64.833916 11.1975l5.92036 0.071658c16.795397-0.093839 30.216017-2.750323 43.877206-12.654557h3.412311l1.600374-4.052119C871.998851 325.875737 871.998851 325.875737 873.705006 322.463426c0.938386-9.759211-0.607391-14.620048-6.824622-22.180024-11.252097-10.660061-23.05187-10.888686-37.915898-10.670298-10.42973 0.70123-19.368279 2.52511-27.878584 8.750872-2.917526 4.313162-4.157901 6.918461-4.157902 12.15636 4.582734 6.415145 9.474283 8.610968 17.061557 10.236934 13.480336 1.250612 13.480336 1.250612 25.592336-3.412312l-1.706156-6.824622c-7.392773-1.583312-13.081096-1.583312-20.473868 0 0.426539-4.05212 0.426539-4.05212 1.706155-8.530779 8.047936-5.464817 18.013592-4.418943 27.298491-3.412311 6.328131 2.946531 9.110871 4.963207 12.690386 10.876742 1.631085 7.612867 0.491373 12.6665-3.519799 19.30174-11.090012 10.796553-23.860587 9.847931-38.495991 9.702907l-5.973251 0.059716c-19.170365-0.064834-37.518364-2.076391-51.715285-16.054925-4.862544-7.293816-4.442829-13.623653-3.412311-22.180024 4.436005-10.028783 12.727921-15.459477 22.180024-20.473869 7.838079-2.987479 15.514074-3.83032 23.886179-3.412311l0.960566-3.733069c4.309749-8.433528 11.427831-12.152947 20.047329-15.56867 15.33834-2.859517 29.018296-1.858004 42.580528 6.265003z" p-id="1008"></path><path d="M633.137054 168.909413c18.965627 6.65742 36.852963 14.451139 54.596982 23.88618l5.886237 3.065962C720.463221 210.454304 744.450064 229.460879 766.217198 250.804887l4.765293 4.565672c7.843198 7.623104 7.843198 7.623104 10.590108 10.789729v3.412311l-4.058944 1.759047c-14.120144 6.514102-23.76163 13.127162-30.917248 27.138112-1.44682 8.861773-0.267866 17.218523 2.559234 25.699823-6.498747-0.358293-8.585375-1.75734-13.422327-6.304245a432.64696 432.64696 0 0 1-5.132116-5.852114 6794.123524 6794.123524 0 0 0-5.492115-6.131924l-2.625774-2.965298c-7.998458-9.02727-16.648667-16.621369-26.112713-24.067032l-3.163212-2.496106a196.65833 196.65833 0 0 0-16.884117-11.791242c-7.324526-5.319793-8.022344-12.43105-9.690964-20.94818-1.347863-5.935716-3.340653-9.255895-7.902914-13.282422-7.599217-4.777236-15.457771-3.593164-23.886179-1.706155l-5.331737 2.666721c-6.068796 3.033545-10.144802 3.210985-16.848287 2.451746-3.412311-1.706156-3.412311-1.706156-5.118467-5.118467 0.551088-11.313518 3.9634-19.787994 8.957317-29.857725l1.979141-4.152783c4.337048-8.94708 9.213241-17.385726 14.655877-25.704942zM356.739832 274.691066c1.996202 3.988992 1.818762 6.437325 1.919425 10.876743 1.407578 14.492086 10.27447 25.64352 18.460605 37.202725l2.607006 3.702357a451.571639 451.571639 0 0 0 5.217424 7.198271l2.400561 3.347478 2.178761 2.963592c1.339332 2.955062 1.339332 2.955062 0.972508 6.462918-2.165112 5.359035-6.541401 8.590494-10.82897 12.274084l-2.690607 2.371556A879.82013 879.82013 0 0 1 370.389078 366.823473c-3.763779-1.81535-7.000357-3.545392-10.344422-6.079032-7.2341-5.36586-15.16943-4.901785-23.778692-4.157902-16.116347 3.345771-27.960479 14.318059-36.789835 27.72503C287.650764 403.109993 279.962826 424.273148 273.138203 445.306635l-18.767712-3.412311c1.706156-8.530778 1.706156-8.530778 3.412311-11.94309 0.180853-6.456093 0.054597-12.949722-3.845675-18.281458l-2.446627-2.511461L247.545868 404.358899c5.25496-23.922009 22.763529-47.455014 37.535425-66.540072l3.70577-4.859132c14.495499-18.383828 30.886536-34.276668 49.398326-48.564015l3.799609-2.946531 3.570984-2.685489 3.173449-2.388618C351.621365 274.691066 351.621365 274.691066 356.739832 274.691066z" p-id="1009"></path><path d="M197.961571 389.296956c5.169652 4.026527 7.438839 7.008888 8.63656 13.355787l3.132502-0.238862c12.690386-0.547676 23.727507 1.511654 34.015626 9.375326 4.507663 4.644156 5.497234 7.672582 5.719034 14.109907-2.366438 7.097608-3.901978 8.974379-10.450204 12.582899-17.143452 5.405101-39.727835 6.410027-56.229773-1.625967C179.939449 435.069701 179.939449 435.069701 175.887329 431.65739v-3.412312l5.297613 0.059716 6.964528 0.047772 3.48397 0.042654c6.35543 0.030711 12.199013-0.3327 18.377003-1.856297-0.858196-3.436198-0.858196-3.436198-3.412312-6.824623-12.994082-5.304438-26.232144-4.847188-39.314945 0.034123-5.043396 2.52511-7.55827 5.231073-10.16357 10.202811-0.290046 4.523019-0.290046 4.523019 1.706156 8.530779 16.102697 14.771896 47.115489 10.994467 67.483576 10.980818 18.047715 0.025592 33.235913 1.109001 50.241167 7.786894v3.412311l-4.678279-0.839428c-9.281487-1.318858-18.597097-1.119238-27.951949-1.079997l-5.821403 0.010237c-9.191061 0.047772-18.289989 0.194502-27.448633 1.056111-33.817712 3.144445-76.077482 5.512589-105.036063-14.928863-4.294394-6.517515-5.27714-12.292852-4.797709-20.047329 2.84928-7.124906 7.240925-11.226504 13.649245-15.355401l6.611353-1.279617c6.358842-1.317152 8.790114-3.582927 12.796168-8.638266 15.184786-19.153304 43.387539-22.784003 64.08662-10.262527z" p-id="1010"></path><path d="M751.049474 361.478088C774.372622 378.68808 784.135245 425.197884 790.103378 452.131258c0.255923 1.112414 0.511847 2.224827 0.772888 3.371364 4.238091 19.185721 4.799416 38.26566 4.772118 57.836971l-0.003413 3.680178c-0.034123 10.428024-0.073365 20.378324-2.129282 30.656206l-30.710802-5.118467c-1.320565-6.606235-1.852885-11.103661-1.632791-17.628001 1.342745-57.036785-11.144609-111.80097-46.032081-158.000254L711.620216 361.705006l1.706155-5.118467c12.013042-4.004347 26.472712-0.156966 37.723103 4.891549z" p-id="1011"></path><path d="M877.117318 416.301989c6.573818 2.687195 10.999586 7.126612 15.901371 12.100056l2.675252 2.675252c2.905583 2.908995 5.800929 5.829934 8.694569 8.752578a9659.076273 9659.076273 0 0 1 21.941163 22.038414c5.401689 5.437518 10.817027 10.864799 16.227246 16.293786C953.169208 488.813605 963.772965 499.473666 974.368192 510.140552c-2.723024 6.642064-7.0123 10.856269-12.045459 15.901371a2689.583831 2689.583831 0 0 1-11.359585 11.371527l-6.044909 6.051734a7200.833505 7200.833505 0 0 1-12.6665 12.649439c-5.427281 5.408514-10.840913 10.832382-16.247721 16.259663a6938.793583 6938.793583 0 0 1-12.478822 12.478823c-2.001321 1.996202-3.997523 3.997523-5.992019 6.00055-2.781034 2.789565-5.574011 5.568892-8.368694 8.344807l-4.814771 4.806241C880.529629 607.391426 880.529629 607.391426 877.117318 607.391426c0.4436-3.094966 0.911087-6.186521 1.385398-9.278075l0.78142-5.217424c3.245108-15.573789 7.984809-24.445799 19.552544-35.522161l3.879798-3.837144a1871.175069 1871.175069 0 0 1 12.255316-11.939678c2.774209-2.721318 5.545006-5.446049 8.315803-8.172486 6.763201-6.652301 13.555407-13.273891 20.369793-19.871595-2.284542-5.135529-4.741407-8.50348-8.860067-12.308207l-3.347477-3.130796c-1.194309-1.103883-2.385206-2.209472-3.613638-3.349184-2.526817-2.407386-5.050221-4.81989-7.571919-7.2341a916.973376 916.973376 0 0 0-11.939677-11.236741C890.201826 459.539386 879.261956 446.535067 877.117318 421.420456v-5.118467z" p-id="1012"></path><path d="M159.538945 468.998313c2.589944 0 5.181595 0.010237 7.771539 0.027299l4.123779 0.00853c4.36264 0.008531 8.726986 0.030711 13.091332 0.051185 2.951649 0.010237 5.903299 0.017062 8.853242 0.023886 7.251162 0.018768 14.500617 0.047772 21.750073 0.083602-0.068246 4.676573-0.191089 9.341202-0.34635 14.016069l-0.040948 3.99411c-0.278103 7.008888-0.557913 10.074849-5.164533 15.636917a164.319855 164.319855 0 0 1-8.930019 6.13363c-13.923937 9.332672-17.883924 28.919339-21.673295 44.325925l-0.987865 3.910509c-1.027106 4.070887-2.043975 8.145187-3.057431 12.219487-1.344451 5.39657-2.699138 10.789729-4.06065 16.18118l-0.9145 3.722832c-1.467294 5.812872-3.007952 11.136078-6.00908 16.351796-3.833732-3.833732-4.120366-5.268609-5.118467-10.443379l-0.847959-4.357521-0.858197-4.714109-0.897438-4.896666C149.834332 545.364136 146.558513 507.161604 152.001149 470.898971c1.706156-1.706156 1.706156-1.706156 7.537796-1.900658z" p-id="1013"></path><path d="M105.56471 459.100904L109.347257 460.662036l3.446434 1.286442L121.290347 465.780504c-2.704257 6.590879-6.926992 10.730013-11.956739 15.70175l-2.509755 2.496106a2389.058155 2389.058155 0 0 1-7.9268 7.821018 8547.800769 8547.800769 0 0 0-5.377802 5.331736A4939.262715 4939.262715 0 0 1 80.34261 510.140552c2.335727 5.292495 4.944439 8.696276 9.172293 12.620433l3.555629 3.337241 3.83885 3.576102c2.683783 2.564352 5.362447 5.132116 8.039406 7.701587a1040.789094 1040.789094 0 0 0 12.680149 11.977213C136.133901 566.544352 148.336327 579.843836 150.294994 605.68527v5.118467c-6.713723-2.7162-11.21968-7.348413-16.213598-12.413989l-2.775915-2.774209c-3.018189-3.019896-6.02273-6.051734-9.028976-9.085279a10410.252264 10410.252264 0 0 1-22.775472-22.874429c-5.608134-5.642257-11.226504-11.277689-16.846582-16.913121A29312.142063 29312.142063 0 0 1 49.631808 513.552863c2.168524-4.729464 4.427474-8.285092 8.049642-12.011336l2.815157-2.914114 3.031839-3.076199 3.135914-3.195629c2.188998-2.219709 4.381408-4.436005 6.578936-6.647183 3.361127-3.39525 6.684718-6.822917 10.00831-10.253996 2.132695-2.153168 4.265389-4.306337 6.401496-6.454387l3.001128-3.129089c7.025949-6.949172 7.025949-6.949172 12.91048-6.770026zM510.293844 49.478515c6.623296 2.702551 11.103661 7.210214 16.056632 12.202426l2.726436 2.709375c2.961886 2.946531 5.911829 5.906711 8.861773 8.866891l6.167753 6.159222c4.302925 4.2961 8.599025 8.599025 12.890006 12.907068 5.510883 5.531357 11.038827 11.047358 16.570184 16.558241 4.244915 4.231266 8.4813 8.472769 12.715978 12.715978 2.035444 2.038856 4.0743 4.0743 6.114862 6.108037a2470.035716 2470.035716 0 0 1 8.50348 8.527367l2.579708 2.555821C609.250874 144.632524 609.250874 144.632524 609.250874 148.435545a776.003968 776.003968 0 0 1-15.355401-2.666721l-4.338754-0.682463C577.675051 142.829117 571.549952 138.169606 563.184671 129.667832a3433.853303 3433.853303 0 0 0-5.69856-5.608133A2722.394911 2722.394911 0 0 1 537.592335 104.182985l-6.964527-6.988414c-5.645669-5.664437-11.284514-11.333992-16.921652-17.005254-6.831447 3.134208-11.465366 7.662345-16.635018 13.009438l-2.618949 2.666721A1530.65881 1530.65881 0 0 0 488.11382 102.369341c-6.375904-2.926057-9.801864-5.959602-13.649245-11.943089 0.426539-6.903106 4.58444-10.293237 9.33779-14.956161l4.647568-4.59809 4.889842-4.758468A2980.766598 2980.766598 0 0 1 510.293844 49.478515z" p-id="1014"></path><path d="M419.867593 145.023234c3.992404 6.237705 4.050414 11.48584 3.412311 18.767712-3.202454 6.201876-7.031068 10.863093-11.963564 15.764879l-4.140839 4.137427-4.44283 4.389939-4.569085 4.555436a6110.989022 6110.989022 0 0 1-11.989156 11.905554c-4.089655 4.053826-8.169073 8.117889-12.250198 12.181952A15701.039354 15701.039354 0 0 1 349.915209 240.567952c-7.058366-3.054019-9.66196-7.099314-13.649245-13.649245 2.566058-5.992019 6.03126-9.885466 10.610582-14.49038l4.504251-4.55373 4.872781-4.869368 4.999036-5.01951c3.485676-3.497619 6.978177-6.991826 10.475796-10.480915 4.487189-4.475246 8.952199-8.970967 13.413796-13.471805 3.431079-3.456671 6.875807-6.9014 10.322242-10.344422 1.653265-1.653265 3.301411-3.309942 4.944439-4.971738 2.294779-2.315253 4.608327-4.613445 6.921874-6.90993l3.975342-3.980461C414.749126 145.023234 414.749126 145.023234 419.867593 145.023234z" p-id="1015"></path><path d="M322.37615 797.405985c4.896667 0.813836 9.764329 1.719805 14.635404 2.673546 21.227989 4.089655 41.865648 5.486997 63.475816 5.391452 2.129282 0 4.258565-0.003412 6.452681-0.006825 6.725666-0.008531 13.453038-0.030711 20.178703-0.051184 4.591265-0.010237 9.184236-0.017062 13.775501-0.023886 11.190675-0.018768 22.379644-0.047772 33.57032-0.083602-5.992019 3.99411-11.148021 4.599796-18.107431 5.492115l-3.913921 0.532321c-4.210792 0.566444-8.421584 1.112414-12.635789 1.653265l-4.364346 0.569856c-8.523954 1.109001-17.049614 2.190704-25.580392 3.245108-3.122265 0.385591-6.241118 0.779713-9.361677 1.173835-20.740029 2.559234-41.442522 3.059137-62.31563 3.221222l-3.843969 0.051184c-25.691292 0.286634-25.691292 0.286634-37.317037-5.701972-3.412311-3.412311-3.412311-3.412311-3.946338-8.424997C293.612072 801.893175 293.612072 801.893175 295.67652 799.040482c7.107845-5.270315 18.383828-2.712788 26.701337-1.632791z" p-id="1016"></path><path d="M268.019736 730.234636c11.214561-2.158287 22.743055-3.722832 32.964634 2.354494 9.946888 7.78007 18.347998 17.153689 26.858303 26.436883 2.654778 2.772503 5.318087 5.538181 7.986515 8.297035 4.81989 5.033159 9.622718 10.078262 14.340239 15.208672l2.85781 3.100085C355.033676 788.243929 355.033676 788.243929 355.033676 791.65624a1104.804056 1104.804056 0 0 1-11.197499-1.387104l-6.295715-0.779713c-13.731141-2.676958-21.159743-8.189547-30.698859-17.999943l-3.391838-3.408899a1489.714486 1489.714486 0 0 1-7.014006-7.114669c-3.584633-3.66141-7.193152-7.297228-10.805084-10.93134-2.279424-2.301604-4.557142-4.60662-6.834859-6.90993l-3.279232-3.318473C268.019736 732.142118 268.019736 732.142118 268.019736 730.234636z" p-id="1017"></path><path d="M453.990707 718.291546v1.706155l-20.473869 1.706156 6.824623 3.412312-3.61705 0.675637a3780.260918 3780.260918 0 0 0-16.537767 3.163213l-5.686617 1.059523c-12.185364 2.371556-24.314425 5.080932-35.580171 10.457028l-1.706156 3.412311 15.355402 6.824623v1.706156c-48.314917-1.842648-48.314917-1.842648-59.71545-11.94309 1.706156-5.118467 1.706156-5.118467 5.261785-6.983295 11.769062-4.14084 23.244665-6.785381 35.58017-8.585376l5.599603-0.851372c24.879162-3.688709 49.512638-6.51069 74.695497-5.759981z" p-id="1018"></path><path d="M510.293844 975.921055c6.950878 2.746911 11.542143 7.742535 16.635018 13.009437l2.618949 2.666722A1530.65881 1530.65881 0 0 1 535.88618 998.101079c-2.351083 7.131731-5.562068 11.371528-10.876743 16.635018l-3.98558 4.026527c-5.841877 4.823302-5.841877 4.823302-10.730013 4.93079-3.352596-2.086628-3.352596-2.086628-6.718841-5.225954l-3.565865-3.318473c-4.2961-4.338754-8.138363-8.822531-11.895318-13.635597 2.746911-6.950878 7.742535-11.542143 13.009437-16.635018l2.666722-2.618949A1530.65881 1530.65881 0 0 1 510.293844 975.921055z" p-id="1019"></path><path d="M998.254372 487.960528c7.131731 2.351083 11.371528 5.562068 16.635018 10.876742l4.026527 3.98558c4.823302 5.841877 4.823302 5.841877 4.93079 10.730013-2.086628 3.352596-2.086628 3.352596-5.225955 6.718841l-3.318472 3.565865c-4.338754 4.2961-8.822531 8.138363-13.635597 11.895318-6.950878-2.746911-11.542143-7.742535-16.635018-13.009437l-2.618949-2.666722A1530.65881 1530.65881 0 0 1 976.074348 513.552863c2.746911-6.950878 7.742535-11.542143 13.009437-16.635018l2.666721-2.618949A1530.65881 1530.65881 0 0 1 998.254372 487.960528z" p-id="1020"></path><path d="M22.333317 487.960528c6.950878 2.746911 11.542143 7.742535 16.635018 13.009437l2.618949 2.666721A1530.65881 1530.65881 0 0 1 47.925652 510.140552c-2.746911 6.950878-7.742535 11.542143-13.009437 16.635017l-2.666721 2.618949A1530.65881 1530.65881 0 0 1 25.745628 535.732887c-7.131731-2.351083-11.371528-5.562068-16.635018-10.876743l-4.026527-3.985579C0.262487 515.028688 0.262487 515.028688 0.153293 510.140552c2.086628-3.352596 2.086628-3.352596 5.225955-6.718842l3.318472-3.565865c4.338754-4.2961 8.822531-8.138363 13.635597-11.895317z" p-id="1021"></path><path d="M514.32549 1.194309c4.825008 2.378381 7.872202 4.90861 11.644513 8.721868l3.48397 3.446434C532.473868 17.061557 532.473868 17.061557 535.88618 25.592335l-22.180024 22.180024c-6.926992-3.463496-11.354466-7.548033-16.635018-13.009437l-2.618949-2.666721A1530.65881 1530.65881 0 0 1 488.11382 25.592335c2.359613-7.230688 5.649081-11.371528 11.090012-16.635018l4.105011-4.026527c5.838465-5.270315 5.838465-5.270315 11.016647-3.736481z" p-id="1022"></path><path d="M568.303138 711.466923l-5.118467 1.706156 6.251354-0.010237a182965.201679 182965.201679 0 0 1 164.864118-0.17744l3.6307-0.001707c19.42117-0.017062 38.84234-0.042654 58.26351-0.073364 19.915955-0.032417 39.831911-0.051185 59.749573-0.05801 11.190675-0.005118 22.38135-0.015355 33.572025-0.039241 10.523568-0.023886 21.04543-0.030711 31.567293-0.025592 3.872973 0 7.745947-0.008531 11.61892-0.020474 5.265196-0.017062 10.530393-0.013649 15.797296-0.005119l4.697046-0.029004c10.544042 0.051185 10.544042 0.051185 14.347063 3.852499l-6.739315 0.011943a144691.92557 144691.92557 0 0 0-178.277914 0.43507l-3.936101 0.011943c-20.975478 0.059715-41.950956 0.102369-62.92814 0.138199-21.552159 0.037535-43.106024 0.093839-64.658183 0.168909-13.27901 0.04436-26.559726 0.075071-39.838735 0.085308-10.214754 0.010237-20.429508 0.047772-30.642556 0.093838-4.168138 0.015355-8.334571 0.02218-12.501003 0.018768-20.451688-0.010237-40.043474 0.39924-60.106159 4.599796-6.602823 1.352981-13.108394 2.200941-19.801643 2.967005l5.118467-1.706156v-3.412312l-35.829269 3.412312-3.412311-6.824623c15.769997-0.98957 31.529757-1.718099 47.325346-2.079804l3.971931-0.093838c6.630121-0.158672 13.260242-0.300283 19.890363-0.418008 13.261948-0.284928 31.062271-6.321307 43.124791-2.526817z" p-id="1023"></path><path d="M609.250874 383.88503c4.794297 3.70577 9.196179 7.836373 13.649246 11.94309l3.758661 3.359421c14.857204 13.92223 28.549103 33.655627 35.48292 52.943717l-1.706156 3.412311a708.334421 708.334421 0 0 1-5.971545-6.505571l-3.35942-3.657998C648.492455 441.894324 648.492455 441.894324 648.492455 436.775857h-3.412311l-2.026913-3.519799C630.939526 413.623324 607.933722 400.735024 587.07085 392.415809c3.501031-3.835438 5.13041-5.121879 10.236935-6.824623l-1.706156-3.412311c5.937422-2.120752 8.283386-1.412697 13.649245 1.706155z" p-id="1024"></path><path d="M755.980264 730.234636c-6.512396 7.959216-13.401853 15.568671-20.473869 23.033101l-2.574588 2.857811C730.387928 758.759853 730.387928 758.759853 725.269461 762.651594c-7.882439-0.146729-13.618535-3.07108-20.473868-6.824623 10.672004-24.491865 26.904369-28.410905 51.184671-25.592335z" p-id="1025"></path><path d="M82.048766 711.466923l-1.706156 1.706156h346.349605v3.412311H54.750275l1.706156-3.412311c4.898373-1.139712 4.898373-1.139712 10.98423-2.026913l6.070502-0.924737C78.636455 709.760767 78.636455 709.760767 82.048766 711.466923z" p-id="1026"></path><path d="M238.05623 467.259741l4.623682-0.006825 4.865956 0.020474 4.865956-0.020474 4.623682 0.006825 4.272214 0.006824C264.607425 467.486659 264.607425 467.486659 266.313581 469.192815c0.068246 3.412311 0.073365 6.824623 0 10.236934-5.577423 1.718099-11.158258 3.419136-16.742506 5.118467l-4.801122 1.479237-4.615152 1.399048-4.250033 1.30009C232.190467 489.666683 232.190467 489.666683 227.072 489.666683c0.238862-3.378188 0.489667-6.75467 0.747296-10.131152 0.136492-1.880184 0.276397-3.760367 0.419714-5.69856 0.861609-7.420071 2.968711-6.568699 9.81722-6.57723z" p-id="1027"></path><path d="M537.592335 945.210253c0 5.118467 0 5.118467-2.19241 7.892676-1.001513 0.972509-2.001321 1.946724-3.031838 2.951649l-3.267289 3.214398-3.451552 3.321885-3.451553 3.383306A1471.7026 1471.7026 0 0 1 513.706156 974.214899c-4.848894-2.323784-8.462532-4.354109-11.94309-8.530778v-3.412311l35.829269-17.061557z" p-id="1028"></path><path d="M453.990707 716.58539h66.540071l-1.706155 3.412311c-5.15259 1.51336-5.15259 1.51336-11.624039 2.879991l-6.430501 1.405873c-5.123586 0.731941-7.906325 0.909381-12.656263-0.873552h5.118467v-3.412312l-35.829269 3.412312-3.412311-6.824623z" p-id="1029"></path><path d="M257.782802 199.620216c0 5.118467 0 5.118467-3.915627 9.614187a537.802454 537.802454 0 0 1-5.415338 5.335149l-2.868048 2.845868c-3.031839 3.002834-6.079033 5.9869-9.127933 8.96926-2.055918 2.030325-4.111835 4.062357-6.164341 6.096094A4387.273577 4387.273577 0 0 1 215.12891 247.392575l5.118467 3.412312-13.649246 1.706155c2.719612-6.674481 7.061778-10.871624 12.15636-15.889428l2.552409-2.518286c5.72074-5.603015 11.630863-10.914278 17.721839-16.107815 6.546519-5.817991 12.627258-12.122236 18.754063-18.375297z" p-id="1030"></path><path d="M331.147497 290.046467l3.412311 1.706156-40.947736 40.947737-3.412312-1.706156c29.004647-31.990419 29.004647-31.990419 40.947737-40.947737z" p-id="1031"></path><path d="M421.573748 380.472719l3.412312 1.706156-34.123114 34.123114-3.412311-1.706156c10.801672-12.113705 21.663059-23.662673 34.123113-34.123114z" p-id="1032"></path><path d="M726.975617 730.234636l5.118467 1.706155-4.852307 4.73117-6.237705 6.145573-3.205866 3.118852-3.031839 2.999422c-0.929855 0.911087-1.85971 1.822174-2.815157 2.762266-2.402267 2.330609-2.402267 2.330609-2.03715 5.835053l-5.118467-1.706156c2.746911-6.950878 7.742535-11.542143 13.009437-16.635018l2.666722-2.618949A1530.65881 1530.65881 0 0 1 726.975617 730.234636z" p-id="1033"></path><path d="M510.293844 975.921055l5.118467 1.706156-25.592335 25.592335c0-6.824623 0-6.824623 4.478659-11.970388A440.517456 440.517456 0 0 1 500.05691 985.73145l2.958474-2.866341A951.855729 951.855729 0 0 1 510.293844 975.921055z" p-id="1034"></path><path d="M443.753772 805.305486h30.710803c-5.674674 3.782547-9.201298 4.359228-15.889428 5.331737l-5.737802 0.866727c-5.360741 0.592036-10.520156 0.740472-15.908195 0.626159v-1.706156h8.530778l-1.706156-5.118467z" p-id="1035"></path><path d="M22.333317 487.960528l6.824623 3.412311-3.091555 0.563031c-4.180081 1.279617-5.865763 2.678664-8.878834 5.788987l-2.731555 2.781033-2.786152 2.917527-2.866342 2.934587A1247.290236 1247.290236 0 0 0 1.859448 513.552863l-1.706155-3.412311c6.884338-8.208315 13.726023-15.580614 22.180024-22.180024z" p-id="1036"></path><path d="M453.990707 716.58539c3.804727-0.046066 7.606042-0.078483 11.410769-0.107488l6.416851-0.059715c5.140647 0.141611 9.612481 0.665401 14.589338 1.873359v1.706155l-29.004647 3.412312-3.412311-6.824623z" p-id="1037"></path><path d="M276.550515 457.249725v3.412311l-4.751644-0.793362c-8.861773-1.265968-17.769612-1.518479-26.706455-1.873359l-5.260078-0.2218c-4.253446-0.180853-8.506892-0.35488-12.760338-0.52379v-1.706156c5.756569-0.337819 11.516551-0.651751 17.274826-0.960565l4.918847-0.290047c19.356336-1.006632 19.356336-1.006632 27.284842 2.956768z" p-id="1038"></path><path d="M353.327521 747.296193c4.941027-0.092132 9.880348-0.160379 14.82308-0.21327l4.22103-0.085308c7.52244-0.061422 13.350668 0.170616 20.197471 3.710889v1.706156a4971.60119 4971.60119 0 0 1-12.903656-0.747297l-3.640936-0.203032c-7.648696-0.45725-15.126776-1.279617-22.696989-2.461983v-1.706155z" p-id="1039"></path><path d="M651.904767 435.069701c4.306337 5.331737 7.501967 10.770961 10.236934 17.061557l-1.706156 3.412311c-2.047387-2.149756-4.067475-4.321692-6.079033-6.505571l-3.417429-3.657998L648.492455 441.894324c1.706156-5.118467 1.706156-5.118467 3.412312-6.824623z" p-id="1040"></path><path d="M145.176527 643.220695l3.412311 1.706156-17.061557 17.061557c0-7.374005 3.668235-10.03902 8.530778-15.355401l5.118468-3.412312z" p-id="1041"></path><path d="M813.989557 261.041821l3.412312 1.706155-13.649246 13.649246c0-5.118467 0-5.118467 4.159608-9.597126L812.283402 262.747976l1.706155-1.706155z" p-id="1042"></path><path d="M484.701509 946.916408v10.236934l-10.236934 3.412312c2.461983-5.74292 5.686617-9.400918 10.236934-13.649246z" p-id="1043"></path><path d="M641.667832 342.937294c4.159608 1.173835 4.159608 1.173835 8.530779 3.412311 1.387105 4.478659 1.387105 4.478659 1.706156 8.530779-5.106524-1.873359-6.561875-2.861223-8.957318-7.89097L641.667832 342.937294z" p-id="1044"></path><path d="M175.887329 428.245078l23.88618 1.706156v1.706156l-22.180024 1.706155-1.706156-5.118467z" p-id="1045"></path><path d="M349.915209 784.831618l5.118467 3.412311v3.412311l-15.355401-1.706155v-1.706156h10.236934v-3.412311z" p-id="1046"></path><path d="M146.882682 598.860647c2.490987 4.516194 3.412311 6.64377 3.412312 11.94309-6.611353-2.985772-6.611353-2.985772-8.530779-6.824623h3.412312l1.706155-5.118467z" p-id="1047"></path><path d="M607.544719 382.178875l-3.412312 5.118467c-3.30653-0.639808-3.30653-0.639808-6.824622-1.706156l-1.706156-3.412311c5.135529-1.593549 6.597704-1.781227 11.94309 0z" p-id="1048"></path><path d="M476.17073 496.491306l13.649246 1.706156c-2.985772 1.919425-2.985772 1.919425-6.824623 3.412311-3.83885-1.492886-3.83885-1.492886-6.824623-3.412311v-1.706156z" p-id="1049"></path><path d="M160.531928 595.448336l5.118467 5.118467-1.706156 5.118467-3.412311-3.412311v-6.824623z" p-id="1050"></path><path d="M604.132407 141.610922l5.118467 3.412312v3.412311l-10.236934-1.706156 5.118467-1.706155v-3.412312z" p-id="1051"></path><path d="M175.887329 428.245078l8.530778 1.706156-6.824622 3.412311-1.706156-5.118467z" p-id="1052"></path><path d="M672.378635 839.4286l5.118467 3.412311-6.824623 1.706156 1.706156-5.118467z" p-id="1053"></path><path d="M641.667832 342.937294l5.118468 1.706156-3.412312 3.412311-1.706156-5.118467z" p-id="1054"></path></svg>